<svg width="20" height="20" viewBox="0 0 20 20" fill="none" xmlns="http://www.w3.org/2000/svg">
<g id="calender">
<path id="Vector" d="M9.22935 12.491V10.9488H10.7713V12.491H9.22935ZM5.39648 12.491V10.9488H6.93848V12.491H5.39648ZM13.0622 12.491V10.9488H14.6042V12.491H13.0622ZM9.22935 15.9534V14.4111H10.7713V15.9534H9.22935ZM5.39648 15.9534V14.4111H6.93848V15.9534H5.39648ZM13.0622 15.9534V14.4111H14.6042V15.9534H13.0622ZM2.23633 19V3.47196H5.9633V1H7.27877V3.47196H12.7598V1H14.0374V3.47196H17.7644V19H2.23633ZM3.51395 17.7224H16.4867V9.17974H3.51395V17.7224ZM3.51395 7.90212H16.4867V4.74958H3.51395V7.90212Z" fill="#0068FA"/>
</g>
</svg>
