<svg width="16" height="17" viewBox="0 0 16 17" fill="none" xmlns="http://www.w3.org/2000/svg">
<g id="calender">
<path id="Vector" d="M7.43902 10.4335V9.23402H8.63835V10.4335H7.43902ZM4.4579 10.4335V9.23402H5.65723V10.4335H4.4579ZM10.4201 10.4335V9.23402H11.6195V10.4335H10.4201ZM7.43902 13.1265V11.927H8.63835V13.1265H7.43902ZM4.4579 13.1265V11.927H5.65723V13.1265H4.4579ZM10.4201 13.1265V11.927H11.6195V13.1265H10.4201ZM2 15.4961V3.41873H4.89876V1.49609H5.9219V3.41873H10.1849V1.49609H11.1786V3.41873H14.0774V15.4961H2ZM2.99371 14.5024H13.0837V7.85811H2.99371V14.5024ZM2.99371 6.86441H13.0837V4.41243H2.99371V6.86441Z" fill="white"/>
</g>
</svg>
